<svg width="39" height="39" viewBox="0 0 39 39" fill="none" xmlns="http://www.w3.org/2000/svg">
<path d="M5.6875 32.5C5.0375 32.5 4.46875 32.2562 3.98125 31.7687C3.49375 31.2812 3.25 30.7125 3.25 30.0625V8.9375C3.25 8.2875 3.49375 7.71875 3.98125 7.23125C4.46875 6.74375 5.0375 6.5 5.6875 6.5H33.3125C33.9625 6.5 34.5312 6.74375 35.0187 7.23125C35.5062 7.71875 35.75 8.2875 35.75 8.9375V30.0625C35.75 30.7125 35.5062 31.2812 35.0187 31.7687C34.5312 32.2562 33.9625 32.5 33.3125 32.5H5.6875ZM19.5 20.2312L5.6875 11.1719V30.0625H33.3125V11.1719L19.5 20.2312ZM19.5 17.7937L33.15 8.9375H5.89062L19.5 17.7937ZM5.6875 11.1719V8.9375V30.0625V11.1719Z" fill="black"/>
</svg>
